<svg xmlns="http://www.w3.org/2000/svg" xmlns:xlink="http://www.w3.org/1999/xlink" width="1080" zoomAndPan="magnify" viewBox="0 0 810 809.999993" height="1080" preserveAspectRatio="xMidYMid meet" version="1.0"><path fill="#ffffff" d="M 304.738281 294.636719 C 305.652344 294.292969 306.675781 293.839844 307.476562 293.382812 C 313.292969 291.101562 319.222656 289.050781 325.269531 287.339844 C 325.726562 287.226562 326.183594 287.113281 326.636719 286.996094 C 326.636719 286.996094 326.753906 286.996094 326.753906 286.996094 C 326.867188 286.996094 326.867188 286.996094 326.980469 286.882812 C 327.09375 286.882812 327.09375 286.882812 327.207031 286.882812 C 334.625 284.832031 342.152344 283.347656 349.679688 282.207031 C 365.761719 280.269531 382.074219 280.269531 398.15625 282.207031 C 409.105469 283.804688 419.941406 286.425781 430.4375 289.960938 C 434.65625 291.332031 439.789062 290.417969 443.667969 288.25 C 447.546875 285.972656 450.398438 282.324219 451.539062 277.988281 C 452.792969 273.542969 452.109375 268.753906 449.828125 264.761719 C 447.546875 260.773438 443.894531 258.378906 439.5625 256.894531 C 430.09375 253.703125 420.398438 251.308594 410.589844 249.710938 C 398.839844 247.773438 386.976562 246.632812 375.117188 246.519531 C 364.28125 246.40625 353.671875 247.429688 342.949219 248.914062 C 334.964844 250.054688 326.980469 251.535156 319.109375 253.703125 C 318.996094 253.703125 318.882812 253.816406 318.652344 253.816406 C 318.199219 253.929688 317.628906 254.042969 317.171875 254.273438 C 317.058594 254.273438 316.941406 254.386719 316.714844 254.386719 C 316.714844 254.386719 316.714844 254.386719 316.601562 254.386719 C 316.488281 254.386719 316.371094 254.386719 316.371094 254.5 C 316.144531 254.5 316.03125 254.613281 315.800781 254.613281 C 315.6875 254.613281 315.574219 254.613281 315.574219 254.730469 C 315.460938 254.730469 315.230469 254.84375 315.117188 254.84375 C 308.386719 256.78125 301.886719 259.289062 295.386719 261.914062 C 293.902344 262.253906 292.535156 262.9375 291.164062 263.621094 C 290.9375 263.738281 290.707031 263.851562 290.480469 263.964844 C 289.683594 264.308594 288.882812 264.648438 288.085938 264.992188 C 286.945312 265.902344 285.804688 266.816406 284.664062 267.613281 C 282.496094 269.78125 281.128906 272.289062 280.214844 275.140625 C 278.960938 279.585938 279.644531 284.375 281.925781 288.367188 C 284.207031 292.242188 287.855469 295.09375 292.191406 296.234375 C 293.675781 296.460938 295.269531 296.6875 296.753906 296.804688 C 299.492188 296.6875 302.230469 296.003906 304.738281 294.636719 Z M 308.386719 293.039062 C 308.503906 293.039062 308.617188 292.925781 308.617188 292.925781 C 308.617188 292.925781 308.503906 292.925781 308.386719 293.039062 Z M 308.386719 293.039062 " fill-opacity="1" fill-rule="nonzero"/><path fill="#ffffff" d="M 463.855469 307.636719 C 463.855469 304.328125 464.085938 301.023438 464.425781 297.714844 C 465.679688 290.191406 467.621094 282.890625 470.472656 275.9375 C 472.070312 272.402344 473.894531 268.867188 475.832031 265.445312 C 480.511719 257.351562 477.773438 246.746094 469.671875 242.070312 C 461.6875 237.398438 450.96875 240.132812 446.289062 248.230469 C 441.386719 256.667969 437.507812 265.675781 434.65625 274.910156 C 433.289062 279.472656 432.261719 284.148438 431.460938 288.820312 C 430.4375 295.09375 429.75 301.363281 429.636719 307.636719 C 429.523438 316.984375 437.507812 324.738281 446.746094 324.738281 C 456.101562 324.738281 463.628906 316.984375 463.855469 307.636719 Z M 463.855469 307.636719 " fill-opacity="1" fill-rule="nonzero"/><path fill="#e6c999" d="M 709.664062 263.394531 C 709.664062 267.707031 709.539062 272.011719 709.289062 276.320312 C 709.039062 280.625 708.667969 284.921875 708.171875 289.210938 C 707.675781 293.5 707.054688 297.777344 706.3125 302.042969 C 705.566406 306.304688 704.699219 310.550781 703.710938 314.78125 C 702.722656 319.007812 701.613281 323.210938 700.382812 327.394531 C 699.148438 331.574219 697.800781 335.730469 696.328125 339.855469 C 694.855469 343.980469 693.265625 348.070312 691.558594 352.128906 C 689.851562 356.1875 688.027344 360.207031 686.089844 364.191406 C 684.148438 368.171875 682.097656 372.113281 679.929688 376.011719 C 677.761719 379.90625 675.484375 383.757812 673.09375 387.558594 C 670.707031 391.359375 668.210938 395.109375 665.605469 398.804688 C 663 402.503906 660.289062 406.144531 657.472656 409.730469 C 654.65625 413.3125 651.738281 416.835938 648.71875 420.296875 C 645.699219 423.761719 642.582031 427.15625 639.367188 430.488281 C 636.152344 433.824219 632.84375 437.085938 629.441406 440.28125 C 626.035156 443.472656 622.542969 446.59375 618.957031 449.640625 C 615.375 452.691406 611.707031 455.660156 607.949219 458.558594 C 604.195312 461.453125 600.359375 464.265625 596.441406 467 C 592.523438 469.734375 588.527344 472.386719 584.457031 474.953125 C 580.386719 477.523438 576.246094 480.003906 572.03125 482.398438 C 567.816406 484.792969 563.535156 487.097656 559.1875 489.316406 C 554.84375 491.53125 550.433594 493.65625 545.964844 495.6875 C 541.496094 497.71875 536.96875 499.65625 532.386719 501.5 C 527.804688 503.34375 523.171875 505.089844 518.492188 506.738281 C 513.808594 508.390625 509.082031 509.941406 504.308594 511.390625 C 499.539062 512.84375 494.726562 514.195312 489.875 515.449219 C 485.027344 516.699219 480.144531 517.847656 475.226562 518.894531 C 470.3125 519.941406 465.367188 520.886719 460.398438 521.726562 C 455.425781 522.570312 450.433594 523.304688 445.421875 523.9375 C 440.40625 524.570312 435.378906 525.097656 430.335938 525.519531 C 425.292969 525.941406 420.238281 526.261719 415.175781 526.472656 C 410.113281 526.683594 405.050781 526.789062 399.980469 526.789062 C 394.914062 526.789062 389.847656 526.683594 384.785156 526.472656 C 379.722656 526.261719 374.671875 525.941406 369.628906 525.519531 C 364.582031 525.097656 359.554688 524.570312 354.542969 523.9375 C 349.527344 523.304688 344.535156 522.570312 339.566406 521.726562 C 334.59375 520.886719 329.652344 519.941406 324.734375 518.894531 C 319.820312 517.847656 314.933594 516.699219 310.085938 515.449219 C 305.234375 514.195312 300.425781 512.84375 295.652344 511.390625 C 290.878906 509.941406 286.152344 508.390625 281.472656 506.738281 C 276.789062 505.089844 272.15625 503.34375 267.574219 501.5 C 262.992188 499.65625 258.46875 497.71875 254 495.6875 C 249.527344 493.65625 245.121094 491.53125 240.773438 489.316406 C 236.425781 487.097656 232.144531 484.792969 227.929688 482.398438 C 223.71875 480.003906 219.574219 477.523438 215.503906 474.953125 C 211.433594 472.386719 207.4375 469.734375 203.523438 467 C 199.605469 464.265625 195.765625 461.453125 192.011719 458.558594 C 188.257812 455.660156 184.585938 452.691406 181.003906 449.640625 C 177.417969 446.59375 173.925781 443.472656 170.523438 440.28125 C 167.117188 437.085938 163.808594 433.824219 160.59375 430.488281 C 157.378906 427.15625 154.261719 423.761719 151.242188 420.296875 C 148.222656 416.835938 145.304688 413.3125 142.492188 409.730469 C 139.675781 406.144531 136.964844 402.503906 134.359375 398.804688 C 131.753906 395.109375 129.253906 391.359375 126.867188 387.558594 C 124.476562 383.757812 122.199219 379.90625 120.03125 376.011719 C 117.867188 372.113281 115.8125 368.171875 113.871094 364.191406 C 111.933594 360.207031 110.109375 356.1875 108.402344 352.128906 C 106.695312 348.070312 105.105469 343.980469 103.632812 339.855469 C 102.164062 335.730469 100.8125 331.574219 99.582031 327.394531 C 98.347656 323.210938 97.238281 319.007812 96.25 314.78125 C 95.261719 310.550781 94.394531 306.304688 93.652344 302.042969 C 92.90625 297.777344 92.289062 293.5 91.792969 289.210938 C 91.292969 284.921875 90.921875 280.625 90.671875 276.320312 C 90.425781 272.011719 90.300781 267.707031 90.300781 263.394531 C 90.300781 259.082031 90.425781 254.777344 90.671875 250.46875 C 90.921875 246.164062 91.292969 241.867188 91.792969 237.578125 C 92.289062 233.289062 92.90625 229.011719 93.652344 224.746094 C 94.394531 220.484375 95.261719 216.238281 96.25 212.007812 C 97.238281 207.78125 98.347656 203.578125 99.582031 199.394531 C 100.8125 195.214844 102.164062 191.058594 103.632812 186.933594 C 105.105469 182.808594 106.695312 178.71875 108.402344 174.660156 C 110.109375 170.601562 111.933594 166.582031 113.871094 162.597656 C 115.8125 158.617188 117.867188 154.675781 120.03125 150.777344 C 122.199219 146.882812 124.476562 143.03125 126.867188 139.230469 C 129.253906 135.429688 131.753906 131.679688 134.359375 127.984375 C 136.964844 124.285156 139.675781 120.644531 142.492188 117.058594 C 145.304688 113.476562 148.222656 109.953125 151.242188 106.492188 C 154.261719 103.027344 157.378906 99.632812 160.59375 96.296875 C 163.808594 92.964844 167.117188 89.703125 170.523438 86.507812 C 173.925781 83.316406 177.417969 80.195312 181.003906 77.144531 C 184.585938 74.097656 188.257812 71.125 192.011719 68.230469 C 195.765625 65.335938 199.605469 62.523438 203.523438 59.789062 C 207.4375 57.054688 211.433594 54.402344 215.503906 51.835938 C 219.574219 49.265625 223.71875 46.785156 227.929688 44.390625 C 232.144531 41.996094 236.425781 39.691406 240.773438 37.472656 C 245.121094 35.257812 249.527344 33.132812 254 31.101562 C 258.46875 29.070312 262.992188 27.132812 267.574219 25.289062 C 272.15625 23.445312 276.789062 21.699219 281.472656 20.050781 C 286.152344 18.398438 290.878906 16.847656 295.652344 15.398438 C 300.425781 13.945312 305.234375 12.59375 310.085938 11.339844 C 314.933594 10.089844 319.820312 8.941406 324.734375 7.894531 C 329.652344 6.847656 334.59375 5.902344 339.566406 5.0625 C 344.535156 4.21875 349.527344 3.484375 354.542969 2.851562 C 359.554688 2.21875 364.582031 1.691406 369.628906 1.269531 C 374.671875 0.847656 379.722656 0.527344 384.785156 0.316406 C 389.847656 0.105469 394.914062 0 399.980469 0 C 405.050781 0 410.113281 0.105469 415.175781 0.316406 C 420.238281 0.527344 425.292969 0.847656 430.335938 1.269531 C 435.378906 1.691406 440.40625 2.21875 445.421875 2.851562 C 450.433594 3.484375 455.425781 4.21875 460.398438 5.0625 C 465.367188 5.902344 470.3125 6.847656 475.226562 7.894531 C 480.144531 8.941406 485.027344 10.089844 489.875 11.339844 C 494.726562 12.59375 499.539062 13.945312 504.308594 15.398438 C 509.082031 16.847656 513.808594 18.398438 518.492188 20.050781 C 523.171875 21.699219 527.804688 23.445312 532.386719 25.289062 C 536.96875 27.132812 541.496094 29.070312 545.964844 31.101562 C 550.433594 33.132812 554.84375 35.257812 559.1875 37.472656 C 563.535156 39.691406 567.816406 41.996094 572.03125 44.390625 C 576.246094 46.785156 580.386719 49.265625 584.457031 51.835938 C 588.527344 54.402344 592.523438 57.054688 596.441406 59.789062 C 600.359375 62.523438 604.195312 65.335938 607.949219 68.230469 C 611.707031 71.125 615.375 74.097656 618.957031 77.144531 C 622.542969 80.195312 626.035156 83.316406 629.441406 86.507812 C 632.84375 89.703125 636.152344 92.964844 639.367188 96.296875 C 642.582031 99.632812 645.699219 103.027344 648.71875 106.492188 C 651.738281 109.953125 654.65625 113.476562 657.472656 117.058594 C 660.289062 120.644531 663 124.285156 665.605469 127.984375 C 668.210938 131.679688 670.707031 135.429688 673.097656 139.230469 C 675.484375 143.03125 677.761719 146.882812 679.929688 150.777344 C 682.097656 154.675781 684.148438 158.617188 686.089844 162.597656 C 688.027344 166.582031 689.851562 170.601562 691.558594 174.660156 C 693.265625 178.71875 694.855469 182.808594 696.328125 186.933594 C 697.800781 191.058594 699.148438 195.214844 700.382812 199.394531 C 701.613281 203.578125 702.722656 207.78125 703.710938 212.007812 C 704.699219 216.238281 705.566406 220.484375 706.3125 224.746094 C 707.054688 229.011719 707.675781 233.289062 708.171875 237.578125 C 708.667969 241.867188 709.039062 246.164062 709.289062 250.46875 C 709.539062 254.777344 709.664062 259.082031 709.664062 263.394531 Z M 709.664062 263.394531 " fill-opacity="1" fill-rule="nonzero"/><path fill="#000000" d="M 392.109375 198.855469 C 388.804688 202.164062 387.207031 206.382812 387.09375 210.945312 C 386.976562 216.074219 387.546875 221.089844 388.347656 226.109375 C 388.917969 229.984375 390.058594 233.863281 391.425781 237.511719 C 393.25 242.1875 395.304688 246.746094 398.042969 251.078125 C 400.664062 255.300781 403.972656 259.289062 407.394531 262.9375 C 410.929688 266.585938 415.039062 269.78125 419.144531 272.746094 C 423.476562 275.824219 428.15625 277.875 432.945312 279.8125 C 436.710938 281.410156 440.472656 282.550781 444.351562 283.234375 C 449.597656 284.261719 454.84375 284.832031 460.207031 284.71875 C 465.109375 284.601562 470.015625 283.917969 474.804688 282.890625 C 479.597656 281.980469 484.046875 280.042969 488.496094 278.21875 C 496.933594 274.683594 504.578125 269.09375 510.851562 262.480469 C 514.273438 258.949219 517.238281 254.957031 519.863281 250.851562 C 522.484375 246.746094 524.308594 242.300781 526.25 237.851562 C 527.617188 234.660156 528.53125 231.355469 529.214844 227.933594 C 530.128906 223.714844 530.582031 219.382812 530.8125 215.046875 C 530.8125 214.933594 530.8125 214.707031 530.8125 214.59375 C 530.8125 214.476562 530.8125 214.476562 530.8125 214.363281 C 530.8125 214.363281 530.8125 214.363281 530.8125 214.25 C 530.8125 214.136719 530.8125 214.136719 530.8125 214.023438 C 530.8125 213.679688 530.8125 213.222656 530.8125 212.882812 C 530.8125 212.882812 530.8125 212.882812 530.8125 212.769531 C 530.8125 203.417969 523.054688 195.664062 513.703125 195.664062 C 504.347656 195.664062 496.707031 203.417969 496.59375 212.769531 C 496.59375 213.339844 496.59375 213.910156 496.59375 214.363281 C 496.59375 215.503906 496.480469 216.644531 496.363281 217.785156 C 495.792969 221.089844 494.882812 224.285156 493.742188 227.363281 C 492.371094 230.328125 490.660156 233.0625 488.835938 235.800781 C 486.785156 238.308594 484.503906 240.589844 481.992188 242.640625 C 479.253906 244.582031 476.515625 246.175781 473.550781 247.546875 C 470.472656 248.683594 467.277344 249.597656 463.96875 250.167969 C 460.546875 250.507812 457.242188 250.507812 453.820312 250.167969 C 450.511719 249.597656 447.316406 248.683594 444.125 247.546875 C 441.15625 246.175781 438.421875 244.464844 435.683594 242.640625 C 433.171875 240.589844 431.007812 238.308594 428.839844 235.800781 C 426.898438 233.0625 425.304688 230.328125 423.933594 227.363281 C 422.792969 224.285156 421.882812 221.089844 421.3125 217.785156 C 421.082031 215.503906 421.082031 213.109375 421.082031 210.714844 C 421.3125 201.367188 413.097656 193.613281 403.972656 193.613281 C 399.753906 193.839844 395.304688 195.664062 392.109375 198.855469 Z M 392.109375 198.855469 " fill-opacity="1" fill-rule="nonzero"/><path fill="#e6c999" d="M 366.105469 369.777344 C 347.398438 369.777344 331.886719 385.285156 331.886719 403.984375 C 331.886719 430.894531 331.886719 547.882812 331.886719 574.792969 C 331.886719 593.492188 347.398438 609 366.105469 609 C 384.8125 609 400.324219 593.492188 400.324219 574.792969 C 400.324219 547.882812 400.324219 430.894531 400.324219 403.984375 C 400.324219 385.285156 384.8125 369.777344 366.105469 369.777344 Z M 366.105469 369.777344 " fill-opacity="1" fill-rule="nonzero"/><path fill="#e6c999" d="M 492.714844 369.777344 C 474.007812 369.777344 458.496094 385.285156 458.496094 403.984375 C 458.496094 430.894531 458.496094 547.882812 458.496094 574.792969 C 458.496094 593.492188 474.007812 609 492.714844 609 C 511.421875 609 526.933594 593.492188 526.933594 574.792969 C 526.933594 547.882812 526.933594 430.894531 526.933594 403.984375 C 526.933594 385.285156 511.421875 369.777344 492.714844 369.777344 Z M 492.714844 369.777344 " fill-opacity="1" fill-rule="nonzero"/><path fill="#e6c999" d="M 682.742188 264.078125 C 692.78125 259.972656 702.589844 255.753906 711.945312 250.28125 C 721.640625 244.695312 730.535156 237.851562 739.203125 230.785156 C 746.046875 225.3125 752.320312 219.152344 758.253906 212.652344 C 765.78125 204.332031 772.625 195.324219 778.785156 185.972656 C 783.574219 178.5625 787.796875 170.691406 791.332031 162.597656 C 796.007812 152.109375 800.230469 141.503906 803.082031 130.328125 C 806.046875 119.039062 807.644531 107.410156 808.785156 95.78125 C 809.695312 87 809.695312 78.21875 809.125 69.441406 C 808.667969 62.144531 807.527344 54.730469 806.503906 47.546875 C 805.363281 44.8125 804.222656 42.074219 803.082031 39.339844 C 800 34.207031 795.894531 30.101562 790.761719 27.023438 C 782.890625 22.347656 773.195312 21.09375 764.414062 23.601562 C 755.859375 25.996094 748.445312 31.699219 743.996094 39.339844 C 742.855469 42.074219 741.714844 44.8125 740.574219 47.546875 C 739.089844 53.25 738.976562 58.949219 740.34375 64.765625 C 741.371094 75.710938 741.371094 86.773438 740.230469 97.71875 C 738.40625 108.890625 735.441406 119.726562 731.335938 130.328125 C 726.773438 140.363281 721.183594 149.941406 714.566406 158.949219 C 707.609375 167.5 699.738281 175.253906 691.296875 182.210938 C 681.71875 189.164062 671.453125 195.09375 660.617188 199.882812 C 659.246094 200.453125 657.878906 201.023438 656.507812 201.59375 C 651.375 204.671875 647.269531 208.777344 644.191406 213.910156 C 639.515625 221.777344 638.257812 231.46875 640.769531 240.246094 C 643.164062 248.800781 648.867188 256.210938 656.507812 260.65625 C 659.246094 261.796875 661.984375 262.9375 664.722656 264.078125 C 667.800781 264.875 670.765625 265.332031 673.847656 265.332031 C 676.925781 265.332031 679.777344 264.992188 682.742188 264.078125 Z M 740.800781 67.957031 C 740.800781 67.730469 740.800781 67.617188 740.6875 67.386719 C 740.800781 67.617188 740.800781 67.730469 740.800781 67.957031 Z M 740.800781 67.957031 " fill-opacity="1" fill-rule="nonzero"/><path fill="#e6c999" d="M 127.027344 264.078125 C 130.109375 264.875 133.074219 265.332031 136.152344 265.332031 C 139.234375 265.332031 142.199219 264.875 145.277344 264.078125 C 148.015625 262.9375 150.753906 261.796875 153.492188 260.65625 C 161.132812 256.210938 166.835938 248.800781 169.230469 240.246094 C 171.625 231.46875 170.371094 221.777344 165.808594 213.910156 C 162.730469 208.777344 158.625 204.671875 153.492188 201.59375 C 152.121094 201.023438 150.753906 200.453125 149.382812 199.882812 C 138.546875 195.09375 128.28125 189.164062 118.703125 182.210938 C 110.148438 175.253906 102.390625 167.386719 95.433594 158.949219 C 88.929688 149.941406 83.34375 140.476562 78.664062 130.328125 C 74.558594 119.839844 71.59375 108.890625 69.769531 97.71875 C 68.628906 86.773438 68.628906 75.710938 69.65625 64.765625 C 71.023438 59.0625 70.910156 53.363281 69.425781 47.546875 C 68.285156 44.8125 67.144531 42.074219 66.003906 39.339844 C 61.554688 31.699219 54.140625 25.996094 45.585938 23.601562 C 36.804688 21.207031 27.109375 22.460938 19.238281 27.023438 C 14.105469 30.101562 10 34.207031 6.917969 39.339844 C 5.777344 42.074219 4.636719 44.8125 3.496094 47.546875 C 2.472656 54.84375 1.332031 62.144531 0.875 69.441406 C 0.304688 78.21875 0.417969 87.113281 1.214844 95.78125 C 2.355469 107.410156 3.953125 119.039062 6.917969 130.328125 C 9.886719 141.503906 14.105469 151.992188 18.667969 162.597656 C 22.203125 170.695312 26.425781 178.5625 31.214844 185.972656 C 37.375 195.324219 44.21875 204.332031 51.746094 212.652344 C 57.5625 219.152344 63.953125 225.3125 70.796875 230.785156 C 79.464844 237.738281 88.359375 244.582031 98.054688 250.28125 C 107.179688 255.753906 116.992188 260.085938 127.027344 264.078125 Z M 68.96875 67.957031 C 68.96875 67.730469 68.96875 67.617188 69.085938 67.386719 C 68.96875 67.617188 68.96875 67.730469 68.96875 67.957031 Z M 68.96875 67.957031 " fill-opacity="1" fill-rule="nonzero"/><path fill="#000000" d="M 360.171875 213.566406 C 358.691406 204.332031 349.792969 197.832031 340.554688 199.3125 C 331.316406 200.796875 324.925781 209.804688 326.296875 218.925781 C 327.777344 228.160156 336.675781 234.660156 345.914062 233.179688 C 355.15625 231.695312 361.65625 222.800781 360.171875 213.566406 Z M 360.171875 213.566406 " fill-opacity="1" fill-rule="nonzero"/><path fill="#000000" d="M 594.914062 213.679688 C 593.433594 204.445312 584.535156 197.945312 575.296875 199.425781 C 566.058594 200.910156 559.667969 209.917969 561.039062 219.039062 C 562.519531 228.273438 571.417969 234.773438 580.65625 233.292969 C 590.011719 231.808594 596.398438 222.917969 594.914062 213.679688 Z M 594.914062 213.679688 " fill-opacity="1" fill-rule="nonzero"/></svg>