<?xml version="1.0" standalone="no"?>
<!DOCTYPE svg PUBLIC "-//W3C//DTD SVG 20010904//EN"
 "http://www.w3.org/TR/2001/REC-SVG-20010904/DTD/svg10.dtd">
<svg version="1.0" xmlns="http://www.w3.org/2000/svg"
 width="1280.000000pt" height="921.000000pt" viewBox="0 0 1280.000000 921.000000"
 preserveAspectRatio="xMidYMid meet">
<metadata>
Created by potrace 1.15, written by Peter Selinger 2001-2017
</metadata>
<g transform="translate(0.000000,921.000000) scale(0.100000,-0.100000)"
fill="#fcde67" stroke="none">
<path d="M1250 6604 c-446 -31 -817 -80 -1129 -149 -63 -14 -116 -25 -118 -25
-1 0 -3 -48 -3 -106 l0 -107 68 7 c434 46 874 57 1253 32 656 -43 1188 -140
1944 -352 796 -223 1680 -563 3035 -1167 1150 -512 1355 -603 1595 -707 2025
-874 3430 -1258 4838 -1323 l67 -3 0 991 0 991 -82 -7 c-435 -40 -1086 -39
-1583 2 -786 64 -1607 209 -2626 464 -470 118 -804 209 -1824 500 -938 267
-1291 365 -1675 464 -1010 260 -1830 409 -2625 477 -179 15 -988 28 -1135 18z"/>
</g>
</svg>
