<!--?xml version="1.0" standalone="no"?-->
              <svg id="sw-js-blob-svg" viewBox="0 0 100 100" xmlns="http://www.w3.org/2000/svg" version="1.1">
                    <defs> 
                        <linearGradient id="sw-gradient" x1="0" x2="1" y1="1" y2="0">
                            <stop id="stop1" stop-color="rgba(248, 117, 55, 1)" offset="0%"></stop>
                            <stop id="stop2" stop-color="rgba(251, 168, 31, 1)" offset="100%"></stop>
                        </linearGradient>
                    </defs>
                <path fill="url(#sw-gradient)" d="M17.8,-24C23.1,-16.8,27.5,-11.2,30.7,-3.8C33.8,3.6,35.9,12.7,32.5,19C29.2,25.3,20.4,28.7,12.3,30C4.2,31.3,-3.3,30.5,-10.6,28.2C-17.9,25.9,-25.1,22.3,-30.9,16C-36.8,9.7,-41.3,0.8,-40,-7.1C-38.7,-15.1,-31.5,-22,-23.9,-28.9C-16.2,-35.7,-8.1,-42.4,-0.9,-41.3C6.3,-40.2,12.5,-31.3,17.8,-24Z" width="100%" height="100%" transform="translate(50 50)" stroke-width="0" style="transition: all 0.3s ease 0s;" stroke="url(#sw-gradient)"></path>
              </svg>