<svg version="1.1" id="Layer_1" xmlns="http://www.w3.org/2000/svg" xmlns:xlink="http://www.w3.org/1999/xlink" x="0px" y="0px"
	 width="100%" viewBox="0 0 100 100" enable-background="new 0 0 100 100" xml:space="preserve">
<path fill="#FFFFFF" opacity="1.000000" stroke="none" 
	d="
M57.000000,101.000000 
	C38.000004,101.000000 19.500006,101.000000 1.000007,101.000000 
	C1.000005,67.666679 1.000005,34.333351 1.000003,1.000021 
	C34.333317,1.000014 67.666634,1.000014 100.999969,1.000007 
	C100.999977,34.333313 100.999977,67.666626 100.999985,100.999969 
	C86.500000,101.000000 72.000000,101.000000 57.000000,101.000000 
M84.296310,60.628784 
	C86.787247,66.290894 89.278183,71.953003 91.769119,77.615112 
	C92.269211,77.402390 92.769295,77.189667 93.269386,76.976952 
	C90.538483,70.955925 87.807587,64.934898 84.951248,58.217392 
	C81.469963,49.667599 75.116333,44.224586 66.577316,41.062061 
	C52.445347,35.828121 38.035103,32.237965 22.790094,33.106850 
	C19.969374,33.267616 16.982872,33.604275 14.340840,32.880978 
	C12.052591,32.254532 8.825220,30.592169 8.337347,28.766527 
	C7.253667,24.711353 7.609005,20.267653 7.416232,15.980610 
	C7.352293,14.558675 7.406147,13.131445 7.406147,11.706635 
	C6.868314,11.689759 6.330481,11.672883 5.792648,11.656007 
	C5.504194,14.233348 5.229863,16.812361 4.924968,19.387754 
	C3.107013,34.743687 8.680049,35.322620 19.166523,35.888058 
	C28.097521,36.369625 37.180313,36.404499 45.886089,38.167297 
	C60.820904,41.191387 76.408073,43.857693 84.296310,60.628784 
z"/>
<path fill="#FAB7BD" opacity="1.000000" stroke="none" 
	d="
M84.066292,59.957165 
	C76.408073,43.857693 60.820904,41.191387 45.886089,38.167297 
	C37.180313,36.404499 28.097521,36.369625 19.166523,35.888058 
	C8.680049,35.322620 3.107013,34.743687 4.924968,19.387754 
	C5.229863,16.812361 5.504194,14.233348 5.792648,11.656007 
	C6.330481,11.672883 6.868314,11.689759 7.406147,11.706635 
	C7.406147,13.131445 7.352293,14.558675 7.416232,15.980610 
	C7.609005,20.267653 7.253667,24.711353 8.337347,28.766527 
	C8.825220,30.592169 12.052591,32.254532 14.340840,32.880978 
	C16.982872,33.604275 19.969374,33.267616 22.790094,33.106850 
	C38.035103,32.237965 52.445347,35.828121 66.577316,41.062061 
	C75.116333,44.224586 81.469963,49.667599 84.899948,58.790115 
	C84.659683,59.655548 84.398903,59.853657 84.066292,59.957165 
z"/>
<path fill="#FAC6CB" opacity="1.000000" stroke="none" 
	d="
M84.181305,60.292976 
	C84.398903,59.853657 84.659683,59.655548 84.962662,59.138355 
	C87.807587,64.934898 90.538483,70.955925 93.269386,76.976952 
	C92.769295,77.189667 92.269211,77.402390 91.769119,77.615112 
	C89.278183,71.953003 86.787247,66.290894 84.181305,60.292976 
z"/>
</svg>