<svg xmlns="http://www.w3.org/2000/svg" xmlns:xlink="http://www.w3.org/1999/xlink" width="1080" zoomAndPan="magnify" viewBox="0 0 810 809.999993" height="1080" preserveAspectRatio="xMidYMid meet" version="1.0"><defs><clipPath id="3334106f98"><path d="M 270 367 L 540 367 L 540 457 L 270 457 Z M 270 367 " clip-rule="nonzero"/></clipPath><clipPath id="01126fcd63"><path d="M 437.363281 534.492188 L 269.582031 421.109375 L 373.304688 267.621094 L 541.085938 381 Z M 437.363281 534.492188 " clip-rule="nonzero"/></clipPath><clipPath id="70d47a7cfa"><path d="M 437.363281 534.492188 L 269.582031 421.109375 L 373.304688 267.621094 L 541.085938 381 Z M 437.363281 534.492188 " clip-rule="nonzero"/></clipPath><clipPath id="746b02d0e9"><path d="M 1 381 L 272 381 L 272 470 L 1 470 Z M 1 381 " clip-rule="nonzero"/></clipPath><clipPath id="16028ca943"><path d="M 108.570312 301.332031 L 272.480469 420.246094 L 163.699219 570.191406 L -0.210938 451.28125 Z M 108.570312 301.332031 " clip-rule="nonzero"/></clipPath><clipPath id="0d28640a7f"><path d="M 108.570312 301.332031 L 272.480469 420.246094 L 163.699219 570.191406 L -0.210938 451.28125 Z M 108.570312 301.332031 " clip-rule="nonzero"/></clipPath><clipPath id="313de7d399"><path d="M 538 323 L 810 323 L 810 411 L 538 411 Z M 538 323 " clip-rule="nonzero"/></clipPath><clipPath id="b72687ccef"><path d="M 651 240.183594 L 810.117188 365.4375 L 695.53125 510.996094 L 536.417969 385.742188 Z M 651 240.183594 " clip-rule="nonzero"/></clipPath><clipPath id="e88f676949"><path d="M 651 240.183594 L 810.117188 365.4375 L 695.53125 510.996094 L 536.417969 385.742188 Z M 651 240.183594 " clip-rule="nonzero"/></clipPath></defs><g clip-path="url(#3334106f98)"><g clip-path="url(#01126fcd63)"><g clip-path="url(#70d47a7cfa)"><path fill="#fcde67" d="M 533.957031 378.089844 C 535.925781 379.417969 537.726562 380.957031 539.304688 382.675781 C 539.527344 382.914062 539.511719 383.289062 539.273438 383.511719 C 539.03125 383.730469 538.65625 383.714844 538.4375 383.476562 C 529.113281 373.34375 512.878906 370.515625 500.679688 376.902344 C 495.257812 379.738281 491.261719 383.945312 489.433594 388.75 C 487.007812 395.117188 488.339844 402.179688 489.628906 409.011719 C 489.976562 410.855469 490.335938 412.765625 490.617188 414.628906 C 491.347656 419.519531 491.113281 424.417969 489.949219 428.414062 C 488.53125 433.277344 485.761719 436.753906 481.933594 438.472656 C 477.984375 440.246094 473.429688 439.929688 468.761719 437.554688 C 464.90625 435.59375 461.074219 432.289062 457.976562 428.25 C 456.390625 426.1875 454.875 423.425781 453.265625 420.503906 C 450.238281 415 447.105469 409.308594 443.507812 408.328125 C 442.371094 408.019531 441.25 408.207031 440.078125 408.898438 C 437.398438 410.488281 436.707031 413.734375 435.96875 417.167969 C 435.339844 420.113281 434.6875 423.160156 432.710938 425.34375 C 431.421875 426.765625 429.40625 428.722656 426.761719 429.308594 C 422.085938 430.351562 417.570312 426.59375 415.910156 422.363281 C 414.359375 418.398438 414.578125 414.066406 414.792969 409.878906 C 414.808594 409.605469 414.820312 409.335938 414.835938 409.0625 C 415.316406 399.300781 414.96875 385.289062 406.417969 376.390625 C 400.308594 370.035156 390.304688 367.382812 381.523438 369.789062 C 372.933594 372.144531 365.6875 379.015625 362.609375 387.722656 C 358.230469 400.101562 362.382812 413.382812 366.394531 426.226562 C 367.476562 429.679688 368.59375 433.253906 369.515625 436.734375 C 370.472656 440.339844 371.199219 444.160156 370.027344 447.660156 C 369.105469 450.414062 367.035156 452.832031 364.203125 454.472656 C 360.171875 456.804688 355.316406 457.226562 350.152344 455.6875 C 345.574219 454.328125 341.042969 451.421875 337.71875 447.71875 C 332.949219 442.40625 329.890625 435.820312 326.933594 429.449219 C 325.875 427.171875 324.78125 424.8125 323.625 422.554688 C 318.144531 411.839844 311.515625 405.417969 303.921875 403.464844 C 297.917969 401.917969 290.992188 403.210938 284.929688 407.007812 C 279.859375 410.183594 275.410156 414.933594 271.332031 421.53125 C 271.160156 421.808594 270.796875 421.894531 270.519531 421.722656 C 270.238281 421.550781 270.15625 421.183594 270.324219 420.90625 C 274.503906 414.15625 279.074219 409.28125 284.304688 406.003906 C 290.640625 402.035156 297.898438 400.691406 304.21875 402.320312 C 306.707031 402.960938 309.097656 404.054688 311.375 405.59375 C 316.351562 408.957031 320.808594 414.449219 324.679688 422.019531 C 325.84375 424.296875 326.941406 426.664062 328.007812 428.953125 C 330.925781 435.242188 333.945312 441.746094 338.597656 446.929688 C 344.613281 453.625 355.421875 458.1875 363.609375 453.449219 C 366.195312 451.953125 368.074219 449.765625 368.90625 447.285156 C 369.976562 444.082031 369.28125 440.46875 368.371094 437.039062 C 367.453125 433.582031 366.34375 430.023438 365.265625 426.582031 C 361.195312 413.554688 356.984375 400.082031 361.492188 387.332031 C 363.046875 382.941406 365.683594 378.882812 369.117188 375.601562 C 372.605469 372.265625 376.789062 369.863281 381.210938 368.652344 C 385.707031 367.417969 390.542969 367.410156 395.195312 368.625 C 399.90625 369.855469 404.082031 372.257812 407.269531 375.574219 C 416.140625 384.800781 416.507812 399.144531 416.015625 409.125 C 416.003906 409.398438 415.988281 409.667969 415.976562 409.941406 C 415.769531 414.007812 415.550781 418.210938 417.015625 421.933594 C 418.492188 425.703125 422.445312 429.0625 426.507812 428.160156 C 428.269531 427.769531 429.960938 426.621094 431.835938 424.554688 C 433.597656 422.609375 434.214844 419.71875 434.8125 416.925781 C 435.570312 413.390625 436.351562 409.738281 439.472656 407.886719 C 440.914062 407.03125 442.375 406.796875 443.816406 407.191406 C 444.5 407.375 445.164062 407.699219 445.804688 408.132812 C 448.988281 410.28125 451.683594 415.179688 454.300781 419.9375 C 455.886719 422.820312 457.386719 425.539062 458.914062 427.53125 C 461.910156 431.433594 465.597656 434.621094 469.296875 436.503906 C 473.632812 438.707031 477.835938 439.015625 481.449219 437.394531 C 485 435.804688 487.476562 432.671875 488.8125 428.085938 C 489.929688 424.25 490.152344 419.535156 489.445312 414.804688 C 489.167969 412.964844 488.8125 411.066406 488.464844 409.234375 C 487.144531 402.238281 485.78125 395.007812 488.324219 388.332031 C 490.261719 383.257812 494.453125 378.828125 500.128906 375.855469 C 506.242188 372.660156 513.59375 371.59375 520.835938 372.855469 C 525.621094 373.6875 530.113281 375.496094 533.957031 378.09375 Z M 533.957031 378.089844 " fill-opacity="1" fill-rule="nonzero"/></g></g></g><g clip-path="url(#746b02d0e9)"><g clip-path="url(#16028ca943)"><g clip-path="url(#0d28640a7f)"><path fill="#fcde67" d="M 6.816406 454.429688 C 4.894531 453.035156 3.148438 451.4375 1.625 449.667969 C 1.410156 449.417969 1.441406 449.046875 1.6875 448.832031 C 1.933594 448.621094 2.308594 448.648438 2.519531 448.894531 C 11.5 459.332031 27.628906 462.699219 40.039062 456.726562 C 45.550781 454.074219 49.683594 450 51.675781 445.257812 C 54.308594 438.976562 53.214844 431.875 52.152344 425.003906 C 51.867188 423.144531 51.570312 421.226562 51.355469 419.355469 C 50.785156 414.441406 51.183594 409.554688 52.480469 405.601562 C 54.058594 400.785156 56.941406 397.402344 60.824219 395.8125 C 64.832031 394.171875 69.375 394.640625 73.960938 397.171875 C 77.746094 399.257812 81.464844 402.6875 84.429688 406.828125 C 85.941406 408.945312 87.367188 411.75 88.878906 414.726562 C 91.722656 420.328125 94.664062 426.121094 98.226562 427.222656 C 99.351562 427.570312 100.480469 427.417969 101.671875 426.765625 C 104.402344 425.265625 105.203125 422.046875 106.054688 418.636719 C 106.78125 415.714844 107.535156 412.691406 109.582031 410.574219 C 110.917969 409.199219 112.996094 407.308594 115.660156 406.808594 C 120.371094 405.925781 124.753906 409.832031 126.273438 414.113281 C 127.695312 418.128906 127.328125 422.449219 126.976562 426.628906 C 126.953125 426.902344 126.929688 427.171875 126.90625 427.441406 C 126.101562 437.183594 125.980469 451.199219 134.230469 460.375 C 140.125 466.933594 150.035156 469.917969 158.890625 467.804688 C 167.554688 465.738281 175.023438 459.109375 178.390625 450.511719 C 183.179688 438.285156 179.472656 424.875 175.890625 411.902344 C 174.925781 408.414062 173.929688 404.808594 173.125 401.300781 C 172.285156 397.660156 171.691406 393.820312 172.976562 390.359375 C 173.988281 387.640625 176.136719 385.292969 179.023438 383.746094 C 183.128906 381.550781 188 381.292969 193.105469 383 C 197.636719 384.511719 202.070312 387.566406 205.269531 391.378906 C 209.859375 396.847656 212.695312 403.53125 215.4375 409.996094 C 216.421875 412.3125 217.4375 414.703125 218.515625 417 C 223.636719 427.890625 230.046875 434.53125 237.570312 436.734375 C 243.523438 438.480469 250.484375 437.421875 256.671875 433.828125 C 261.84375 430.824219 266.449219 426.222656 270.746094 419.765625 C 270.925781 419.496094 271.292969 419.421875 271.566406 419.601562 C 271.839844 419.785156 271.910156 420.152344 271.730469 420.421875 C 267.332031 427.03125 262.597656 431.75 257.265625 434.851562 C 250.796875 438.605469 243.5 439.707031 237.238281 437.871094 C 234.769531 437.148438 232.417969 435.976562 230.195312 434.359375 C 225.332031 430.832031 221.0625 425.191406 217.445312 417.5 C 216.355469 415.1875 215.335938 412.78125 214.351562 410.457031 C 211.640625 404.074219 208.839844 397.472656 204.363281 392.140625 C 198.574219 385.246094 187.921875 380.324219 179.582031 384.789062 C 176.949219 386.195312 174.996094 388.320312 174.085938 390.773438 C 172.90625 393.9375 173.480469 397.574219 174.277344 401.03125 C 175.078125 404.515625 176.070312 408.109375 177.03125 411.585938 C 180.667969 424.742188 184.425781 438.347656 179.492188 450.941406 C 177.796875 455.277344 175.027344 459.242188 171.484375 462.410156 C 167.886719 465.625 163.625 467.886719 159.164062 468.953125 C 154.628906 470.035156 149.796875 469.882812 145.1875 468.515625 C 140.519531 467.128906 136.425781 464.585938 133.351562 461.164062 C 124.792969 451.648438 124.902344 437.300781 125.726562 427.339844 C 125.75 427.070312 125.773438 426.796875 125.796875 426.527344 C 126.140625 422.46875 126.496094 418.277344 125.15625 414.507812 C 123.804688 410.691406 119.964844 407.199219 115.878906 407.96875 C 114.101562 408.300781 112.371094 409.390625 110.433594 411.394531 C 108.605469 413.28125 107.890625 416.148438 107.199219 418.917969 C 106.328125 422.425781 105.425781 426.050781 102.242188 427.796875 C 100.773438 428.605469 99.304688 428.789062 97.878906 428.347656 C 97.199219 428.140625 96.550781 427.796875 95.921875 427.339844 C 92.8125 425.085938 90.285156 420.101562 87.824219 415.257812 C 86.335938 412.324219 84.929688 409.554688 83.46875 407.515625 C 80.605469 403.515625 77.023438 400.207031 73.390625 398.203125 C 69.128906 395.855469 64.9375 395.40625 61.273438 396.90625 C 57.671875 398.378906 55.089844 401.425781 53.605469 405.964844 C 52.359375 409.761719 51.976562 414.46875 52.53125 419.214844 C 52.742188 421.066406 53.039062 422.972656 53.324219 424.820312 C 54.410156 431.851562 55.53125 439.125 52.765625 445.710938 C 50.664062 450.71875 46.324219 455.007812 40.550781 457.789062 C 34.335938 460.78125 26.953125 461.601562 19.757812 460.097656 C 15 459.105469 10.574219 457.148438 6.820312 454.425781 Z M 6.816406 454.429688 " fill-opacity="1" fill-rule="nonzero"/></g></g></g><g clip-path="url(#313de7d399)"><g clip-path="url(#b72687ccef)"><g clip-path="url(#e88f676949)"><path fill="#fcde67" d="M 543.316406 389.164062 C 541.449219 387.695312 539.765625 386.03125 538.3125 384.203125 C 538.109375 383.949219 538.152344 383.574219 538.410156 383.371094 C 538.664062 383.167969 539.035156 383.210938 539.238281 383.46875 C 547.804688 394.25 563.789062 398.246094 576.417969 392.765625 C 582.03125 390.328125 586.320312 386.421875 588.496094 381.761719 C 591.378906 375.589844 590.5625 368.449219 589.773438 361.542969 C 589.558594 359.675781 589.335938 357.746094 589.195312 355.867188 C 588.816406 350.933594 589.410156 346.066406 590.859375 342.167969 C 592.625 337.417969 595.640625 334.148438 599.582031 332.714844 C 603.652344 331.234375 608.171875 331.878906 612.652344 334.585938 C 616.355469 336.820312 619.9375 340.394531 622.738281 344.648438 C 624.164062 346.820312 625.480469 349.683594 626.871094 352.714844 C 629.492188 358.425781 632.207031 364.328125 635.722656 365.566406 C 636.832031 365.960938 637.964844 365.855469 639.183594 365.246094 C 641.96875 363.855469 642.898438 360.671875 643.878906 357.296875 C 644.722656 354.402344 645.59375 351.414062 647.722656 349.378906 C 649.109375 348.054688 651.261719 346.25 653.945312 345.855469 C 658.683594 345.15625 662.914062 349.230469 664.261719 353.570312 C 665.523438 357.636719 664.988281 361.941406 664.472656 366.105469 C 664.4375 366.375 664.40625 366.644531 664.371094 366.914062 C 663.183594 376.617188 662.511719 390.613281 670.394531 400.109375 C 676.027344 406.894531 685.8125 410.265625 694.746094 408.5 C 703.484375 406.773438 711.210938 400.445312 714.910156 391.988281 C 720.175781 379.957031 717 366.410156 713.929688 353.308594 C 713.101562 349.785156 712.246094 346.140625 711.578125 342.605469 C 710.886719 338.9375 710.441406 335.074219 711.863281 331.667969 C 712.980469 328.988281 715.21875 326.726562 718.164062 325.296875 C 722.351562 323.261719 727.226562 323.195312 732.265625 325.101562 C 736.730469 326.792969 741.039062 330.019531 744.089844 333.957031 C 748.460938 339.597656 751.03125 346.390625 753.519531 352.957031 C 754.410156 355.308594 755.332031 357.738281 756.320312 360.074219 C 761.011719 371.160156 767.15625 378.046875 774.585938 380.542969 C 780.464844 382.519531 787.460938 381.734375 793.785156 378.386719 C 799.074219 375.589844 803.855469 371.171875 808.402344 364.890625 C 808.59375 364.625 808.960938 364.566406 809.226562 364.757812 C 809.496094 364.949219 809.550781 365.320312 809.359375 365.582031 C 804.703125 372.015625 799.789062 376.546875 794.335938 379.433594 C 787.730469 382.929688 780.394531 383.746094 774.207031 381.664062 C 771.769531 380.84375 769.46875 379.582031 767.308594 377.882812 C 762.585938 374.164062 758.542969 368.363281 755.230469 360.535156 C 754.234375 358.179688 753.308594 355.734375 752.414062 353.375 C 749.957031 346.890625 747.417969 340.183594 743.152344 334.679688 C 737.640625 327.5625 727.191406 322.226562 718.679688 326.359375 C 715.992188 327.664062 713.960938 329.710938 712.953125 332.125 C 711.652344 335.242188 712.082031 338.894531 712.742188 342.382812 C 713.40625 345.894531 714.257812 349.527344 715.078125 353.039062 C 718.195312 366.328125 721.417969 380.066406 715.996094 392.457031 C 714.128906 396.726562 711.207031 400.578125 707.539062 403.605469 C 703.820312 406.675781 699.476562 408.769531 694.976562 409.65625 C 690.402344 410.5625 685.578125 410.21875 681.027344 408.671875 C 676.417969 407.101562 672.425781 404.402344 669.488281 400.863281 C 661.3125 391.015625 661.980469 376.6875 663.199219 366.765625 C 663.230469 366.496094 663.265625 366.226562 663.296875 365.953125 C 663.800781 361.914062 664.320312 357.738281 663.132812 353.917969 C 661.929688 350.050781 658.230469 346.414062 654.117188 347.019531 C 652.328125 347.285156 650.558594 348.304688 648.539062 350.230469 C 646.640625 352.042969 645.8125 354.878906 645.015625 357.625 C 644.003906 361.09375 642.960938 364.679688 639.710938 366.300781 C 638.210938 367.050781 636.738281 367.175781 635.328125 366.679688 C 634.660156 366.445312 634.023438 366.074219 633.414062 365.597656 C 630.398438 363.21875 628.066406 358.140625 625.796875 353.203125 C 624.425781 350.214844 623.128906 347.394531 621.75 345.296875 C 619.042969 341.1875 615.597656 337.742188 612.042969 335.597656 C 607.878906 333.082031 603.707031 332.46875 599.988281 333.824219 C 596.332031 335.152344 593.632812 338.097656 591.96875 342.574219 C 590.578125 346.320312 590.011719 351.007812 590.375 355.773438 C 590.515625 357.628906 590.734375 359.546875 590.949219 361.402344 C 591.757812 368.472656 592.589844 375.785156 589.570312 382.257812 C 587.273438 387.179688 582.769531 391.296875 576.890625 393.847656 C 570.566406 396.59375 563.152344 397.121094 556.023438 395.339844 C 551.308594 394.160156 546.960938 392.03125 543.316406 389.160156 Z M 543.316406 389.164062 " fill-opacity="1" fill-rule="nonzero"/></g></g></g></svg>