<svg xmlns="http://www.w3.org/2000/svg" version="1.1" xmlns:xlink="http://www.w3.org/1999/xlink" xmlns:svgjs="http://svgjs.dev/svgjs" viewBox="0 0 800 800" opacity="1"><defs><linearGradient x1="50%" y1="0%" x2="50%" y2="100%" id="wwwhirl-grad"><stop stop-color="hsl(206, 75%, 49%)" stop-opacity="1" offset="45%"></stop><stop stop-color="hsl(331, 90%, 56%)" stop-opacity="1" offset="100%"></stop></linearGradient></defs><g stroke-width="3" stroke="url(#wwwhirl-grad)" fill="none" stroke-linecap="round"><path d="M-31.999999176025355 416.6075018528965C-17.599998736572218 409.08350162328225 25.60000258178721 369.08750040270115 54.40000346069348 371.46350047521094C83.20000433959979 373.8395005477207 112.00000521850603 433.04150235442245 140.8000060974123 430.86350228795516C169.60000697631858 428.6855022214878 198.40000785522489 357.80150005827977 227.20000873413113 358.3955000764072C256.00000961303743 358.98950009453466 284.80001049194374 433.83350237859236 313.60001137085004 434.4275023967198C342.4000122497563 435.02150241484725 371.20001312866253 363.34550022746924 400.0000140075688 361.95950018517186C428.8000148864751 360.5735001428745 457.6000157653814 422.151502022086 486.4000166442877 426.1115021429356C515.200017523194 430.0715022637852 544.0000184021002 383.1455008317173 572.8000192810065 385.7195009102695C601.6000201599128 388.2935009888218 630.4000210388191 439.77350255986676 659.2000219177253 441.5555026142491C688.0000227966317 443.33750266863143 716.8000236755379 399.3815013272007 745.6000245544443 396.4115012365635C774.4000254333504 393.4415011459263 817.60002675171 419.1815019314488 832.0000271911631 423.7355020704258 " transform="rotate(208, 400, 400)"></path><path d="M-18.49999920177457 416.0885080024596C-4.549998776054338 408.79963278002083 37.30000250110635 370.0535065975829 65.20000335254682 372.3552566678267C93.10000420398728 374.65700673807055 121.00000505542769 432.00894598831286 148.90000590686816 429.8990084239226C176.80000675830865 427.78907085953244 204.70000760974915 359.12019376392465 232.60000846118953 359.6956312814856C260.50000931263 360.2710687990466 288.40001016407047 432.77619601172745 316.30001101551096 433.3516335292884C344.2000118669514 433.9270710468494 372.1000127183918 364.49094392782695 400.0000135698323 363.14825638685136C427.9000144212728 361.80556884587577 455.80001527271315 421.4592581663619 483.70001612415365 425.29550828343497C511.60001697559414 429.13175840050803 539.5000178270345 383.67219451319227 567.400018678475 386.16575708928974C595.3000195299155 388.6593196653872 623.200020381356 438.53057118733705 651.1000212327965 440.25688374001993C679.0000220842369 441.9831962927028 706.9000229356775 399.4008199931918 734.8000237871179 396.523632405387C762.7000246385583 393.6464448175822 804.550025915719 418.58207057855714 818.5000263414393 422.99375821319114 " transform="rotate(201.5, 400, 400)"></path><path d="M-4.999999227523773 415.5695332255091C8.500001184463542 408.5157830102457 49.00000242042552 371.0195318659509 76.00000324440015 373.24703193392884C103.00000406837478 375.47453200190677 130.00000489234938 430.9764086956896 157.00000571632404 428.93453363337653C184.00000654029873 426.8926585710634 211.0000073642733 360.43890654305585 238.00000818824793 360.9957815600503C265.0000090122226 361.55265657704484 292.00000983619725 431.71890871834887 319.0000106601719 432.27578373534334C346.00001148414657 432.83265875233786 373.0000123081211 365.636406701671 400.0000131320958 364.3370316620172C427.0000139560704 363.03765662236344 454.00001478004503 420.7670333841242 481.0000156040197 424.4795334974207C508.0000164279944 428.1920336107172 535.0000172519689 384.19890726815356 562.0000180759436 386.6120323417963C589.0000188999182 389.025157415439 616.0000197238928 437.28765888829366 643.0000205478675 438.95828393927707C670.0000213718422 440.6289089902605 697.0000221958168 399.4201577326692 724.0000230197915 396.6357826476969C751.0000238437661 393.8514075627245 791.5000250797281 417.9826582991518 805.0000254917154 422.2520334294428 " transform="rotate(195, 400, 400)"></path><path d="M8.500000746727025 415.05052793098037C21.550001144981422 408.23190272289247 60.70000233974466 371.98552661674086 86.80000313625345 374.13877668245283C112.90000393276227 376.2920267481648 139.00000472927107 429.9438408854882 165.10000552577992 427.97002832525226C191.20000632228871 425.99621576501625 217.30000711879757 361.75758880460893 243.40000791530633 362.2959013210369C269.50000871181516 362.8342138374649 295.60000950832404 430.6615909073922 321.7000103048328 431.1999034238202C347.8000111013416 431.7382159402482 373.90001189785045 366.7818389579369 400.00001269435927 365.5257764196049C426.10001349086804 364.26971388127293 452.2000142873769 420.0747780843083 478.3000150838857 423.66352819382826C504.40001588039456 427.25227830334825 530.5000166769033 384.72558950553673 556.6000174734122 387.05827707672466C582.700018269921 389.39096464791265 608.8000190664297 436.04471607167216 634.9000198629386 437.65965362095614C661.0000206594475 439.2745911702401 687.1000214559563 399.43946495456856 713.200022252465 396.7479023724286C739.3000230489739 394.0563397902886 778.4500242437371 417.38321550216835 791.5000246419916 421.5102781281163 " transform="rotate(188.5, 400, 400)"></path><path d="M22.00000072097781 414.5315455246353C34.60000110549932 407.9480453237228 72.40000225906381 372.95154425571434 97.60000302810681 375.0305443191604C122.80000379714977 377.10954438260643 148.00000456619279 428.9112959634705 173.20000533523574 427.0055459053116C198.40000610427876 425.0997958471527 223.60000687332172 363.0762939543456 248.80000764236473 363.5960439702071C274.00000841140775 364.11579398606864 299.20000918045076 429.6042959846191 324.4000099494938 430.12404600048063C349.60001071853674 430.64379601634215 374.8000114875797 367.9272941023864 400.0000122566227 366.71454406537623C425.20001302566567 365.501794028366 450.40001379470874 419.3825456726761 475.60001456375176 422.8475457784195C500.8000153327946 426.3125458841629 526.0000161018377 385.25229463110344 551.2000168708806 387.5045446998367C576.4000176399237 389.7567947685699 601.6000184089667 434.80179614323424 626.8000191780097 436.3610461908188C652.0000199470527 437.92029623840335 677.2000207160958 399.45879506465144 702.4000214851387 396.8600449853439C727.6000222541817 394.2612949060363 765.4000234077463 416.7837955933685 778.0000237922677 420.7685457149734 " transform="rotate(182, 400, 400)"></path><path d="M35.50000069522861 414.01257837707925C47.6500010660172 407.66420318334224 84.10000217838297 373.91757715347694 108.40000291996012 375.92232721465706C132.70000366153732 377.9270772758372 157.00000440311445 427.87876630024175 181.30000514469162 426.04107874415996C205.6000058862688 424.2033911880782 229.90000662784598 364.3950143628714 254.20000736942313 364.8962018781664C278.50000811100034 365.3973893934614 302.80000885257755 428.54701632063507 327.1000095941547 429.0482038359301C351.4000103357319 429.54939135122515 375.700011077309 369.072764505625 400.0000118188862 367.9033269699366C424.3000125604633 366.73388943424817 448.6000133020405 418.69032851983286 472.9000140436177 422.0315786217997C497.20001478519487 425.3728287237666 521.5000155267721 385.77901501545927 545.8000162683493 387.9508275817377C570.1000170099264 390.1226401480162 594.4000177515036 433.5588914735854 618.7000184930807 435.06245401947047C643.000019234658 436.56601656535554 667.3000199762351 399.47814043352344 691.6000207178123 396.9722028570483C715.9000214593894 394.4662652805731 752.3500225717553 416.1843909433577 764.5000229425439 420.0268285606196 " transform="rotate(175.5, 400, 400)"></path><path d="M49.00000066947939 413.4935845266424C60.70000102653508 407.38033434008076 95.8000020977021 374.8835833483586 119.20000281181345 376.81408340727285C142.60000352592482 378.744583466187 166.00000424003613 426.84620993413216 189.4000049541475 425.0765848801275C212.80000566825885 423.3069598261228 236.2000063823702 365.71370806851627 259.60000709648153 366.1963330832448C283.00000781059293 366.67895809797335 306.4000085247043 427.4897099537702 329.8000092388156 427.9723349684988C353.20000995292696 428.4549599832273 376.6000106670383 370.2182082059827 400.00001138114965 369.0920831716161C423.400012095261 367.96595813724946 446.80001280937233 417.9980846641088 470.2000135234837 421.2155847622991C493.600014237595 424.43308486048943 517.0000149517064 386.30570869693423 540.4000156658178 388.39708376075794C563.8000163799292 390.48845882458164 587.2000170940405 432.3159601010557 610.6000178081518 433.76383514524133C634.0000185222632 435.211710189427 657.4000192363745 399.4974590995145 680.8000199504859 397.0843340258718C704.2000206645972 394.67120895222905 739.3000217357643 415.58495959046604 751.00002209282 419.28508470338494 " transform="rotate(169, 400, 400)"></path><path d="M62.50000064373019 412.97459449090275C73.75000098705296 407.0964693115166 107.50000201702126 375.84959335793764 130.00000270366678 377.7058434145859C152.50000339031232 379.5620934712341 175.00000407695785 425.81365738271984 197.50000476360336 424.1120948307923C220.0000054502489 422.4105322788647 242.50000613689443 367.0324055888584 265.00000682353993 367.49646810302045C287.50000751018547 367.96053061718254 310.000008196831 426.4324074016026 332.5000088834766 426.89646991576467C355.00000957012213 427.3605324299267 377.50001025676755 371.3636557210377 400.00001094341314 370.28084318799284C422.5000116300586 369.198030654948 445.0000123167042 417.305844623082 467.5000130033497 420.39959471749575C490.0000136899952 423.49334481190954 512.5000143766408 386.83240619310646 535.0000150632864 388.8433437544754C557.5000157499319 390.85428131584433 580.0000164365773 431.07303254322323 602.500017123223 432.4652200857094C625.0000178098685 433.85740762819563 647.500018496514 399.51678158020286 670.0000191831596 397.19646900939256C692.5000198698051 394.87615643858226 726.2500208997734 414.98553205227165 737.5000212430962 418.5433446608475 " transform="rotate(162.5, 400, 400)"></path><path d="M76.00000061798099 412.45560636251173C86.80000094757084 406.81260619030104 119.20000193634041 376.8156052748652 140.8000025955201 378.5976053292476C162.4000032546998 380.3796053836299 184.00000391387948 424.78110673865615 205.60000457305924 423.1476066888057C227.20000523223894 421.51410663895524 248.80000589141866 368.3511050165492 270.40000655059833 368.79660503014475C292.0000072097781 369.24210504374037 313.60000786895785 425.3751067567836 335.2000085281375 425.8206067703792C356.80000918731724 426.26610678397475 378.4000098464969 372.5091051434413 400.00001050567664 371.46960511171824C421.6000111648563 370.4301050799952 443.200011824036 416.6136064894039 464.80001248321577 419.5836065800411C486.40001314239544 422.5536066706783 508.00001380157516 387.35910559662733 529.6000144607549 389.2896056555415C551.2000151199346 391.2201057144557 572.8000157791143 429.8301068927394 594.400016438294 431.16660693352617C616.0000170974738 432.5031069743129 637.6000177566534 399.5361059682399 659.2000184158331 397.30860590026197C680.8000190750129 395.0811058322841 713.2000200637824 414.38610642142595 724.0000203933723 417.8016065256587 " transform="rotate(156, 400, 400)"></path><path d="M89.50000059223177 411.93663540025847C99.85000090808872 406.5287602352232 130.90000185565955 377.78163435793056 151.60000248737344 379.4893844100469C172.3000031190873 381.1971344621633 193.0000037508012 423.7485732607302 213.7000043825151 422.1831357129568C234.40000501422898 420.61769816518347 255.10000564594287 369.66982161037765 275.80000627765673 370.09675912340674C296.50000690937065 370.52369663643583 317.2000075410846 424.3178232781023 337.9000081727985 424.7447607911314C358.6000088045123 425.17169830416054 379.30000943622616 373.65457173198257 400.0000100679401 372.6583842015813C420.70001069965394 371.66219667118014 441.40001133136786 415.9213855218634 462.1000119630818 418.76763560872405C482.8000125947956 421.6138856955847 503.5000132265095 387.8858221662859 524.2000138582234 389.7358847227453C544.9000144899373 391.58594727920473 565.6000151216513 428.5871984083933 586.3000157533651 429.8680109474806C607.000016385079 431.1488234865679 627.7000170167929 399.55544752241457 648.4000176485068 397.42075995726907C669.1000182802208 395.2860723921236 700.1500192277915 413.7866979567179 710.5000195436485 417.05988555660764 " transform="rotate(149.5, 400, 400)"></path><path d="M103.00000056648257 411.41765299391335C112.9000008686066 406.24490283605354 142.6000017749787 378.74765199690404 162.40000237922678 380.3811520467545C182.20000298347486 382.014652096605 202.0000035877229 422.7160283387124 221.80000419197097 421.21865329301613C241.60000479621903 419.7212782473199 261.4000054004671 370.9885267601143 281.2000060047152 371.39690177257694C301.00000660896325 371.80527678503955 320.8000072132113 423.26052835532926 340.6000078174594 423.66890336779187C360.40000842170747 424.0772783802545 380.20000902595547 374.80002687643207 400.0000096302035 373.8471518473527C419.80001023445163 372.8942768182732 439.6000108386997 415.2291531102311 459.4000114429478 417.9516531933152C479.2000120471958 420.67415327639935 499.00001265144385 388.41252729185265 518.800013255692 390.18215234585733C538.6000138599401 391.95177739986195 558.4000144641882 427.3442784799554 578.2000150684362 428.56940351734323C598.0000156726843 429.7945285547311 617.8000162769323 399.5747776324975 637.6000168811804 397.5329025701844C657.4000174854285 395.4910275078713 687.1000183918005 413.187278047918 697.0000186939246 416.31815314346477 " transform="rotate(143, 400, 400)"></path><path d="M116.50000054073335 410.8986724949169C125.95000082912449 405.96104734423255 154.30000169429786 379.7136715432262 173.2000022710801 381.2729215908107C192.10000284786236 382.83217163839527 211.00000342464458 421.68348532404326 229.90000400142682 420.2541727804241C248.80000457820907 418.82486023680497 267.70000515499135 372.30723381719963 286.60000573177354 372.69704632909577C305.50000630855584 373.0868588409919 324.40000688533803 422.2032353399048 343.30000746212033 422.5930478518009C362.2000080389026 422.98286036369706 381.10000861568477 375.94548392823026 400.000009192467 375.0359214004726C418.90000976924927 374.12635887271495 437.8000103460315 414.5369226059475 456.70001092281376 417.13567268525503C475.600011499596 419.7344227645626 494.5000120763783 388.93923432476805 513.4000126531605 390.62842187631793C532.3000132299428 392.31760942786786 551.2000138067251 426.1013604588661 570.1000143835072 427.2707979945545C589.0000149602895 428.44023553024294 607.9000155370718 399.594109649929 626.800016113854 397.6450470904484C645.7000166906363 395.6959845309677 674.0500175558096 412.5878600464668 683.5000178442008 415.5764226376705 " transform="rotate(136.5, 400, 400)"></path><path d="M130.00000051498415 410.3796881812232C139.00000078964237 405.67718803771425 166.000001613617 380.67968727485106 184.0000021629334 382.16468732016966C202.00000271224985 383.64968736548826 220.00000326156626 420.65093849467684 238.00000381088267 419.2896884531348C256.0000043601991 417.92843841159277 274.00000490951555 373.6259370595877 292.000005458832 373.99718707091733C310.0000060081484 374.368437082247 328.0000065574648 421.14593850978304 346.00000710678125 421.5171885211127C364.00000765609764 421.88843853244236 382.0000082054141 377.0909371653311 400.0000087547305 376.22468713889526C418.0000093040469 375.3584371124594 436.00000985336334 413.8446882869666 454.0000104026798 416.3196883624976C472.0000109519962 418.7946884380286 490.00001150131266 389.4659375429861 508.0000120506291 391.0746875920813C526.0000125999454 392.68343764117645 544.0000131492619 424.85843862307956 562.0000136985783 425.9721886570685C580.0000142478948 427.0859386910575 598.0000147972112 399.6134378526633 616.0000153465276 397.75718779601505C634.0000158958441 395.9009377393668 661.0000167198187 411.9884382303183 670.0000169944769 414.834688317179 " transform="rotate(130, 400, 400)"></path><path d="M143.50000048923494 409.86070005283216C152.05000075016025 405.3933249164987 177.70000153293614 381.6456991917787 194.80000205478675 383.05644923483135C211.90000257663735 384.46719927788405 229.00000309848795 419.6183878506132 246.10000362033855 418.32520031114825C263.2000041421892 417.0320127716833 280.30000466403976 374.9446364872785 297.40000518589034 375.29732399804163C314.500005707741 375.6500115088048 331.6000062295916 420.0886378649641 348.7000067514422 420.4413253757272C365.8000072732928 420.7940128864904 382.9000077951434 378.2363865877347 400.000008316994 377.41344906262066C417.1000088388446 376.5905115375066 434.20000936069516 413.15245015328844 451.3000098825458 415.50370022504285C468.4000104043964 417.8549502967973 485.500010926247 389.992636946507 502.60001144809763 391.5209494931474C519.7000119699483 393.0492620397878 536.8000124917988 423.61551297259575 553.9000130136494 424.67357550488526C571.0000135355001 425.7316380371748 588.1000140573506 399.6327622407003 605.2000145792013 397.86932468688445C622.3000151010518 396.1058871330686 647.9500158838277 411.3890125994726 656.5000161447531 414.0929501819902 " transform="rotate(123.5, 400, 400)"></path><path d="M156.99998520469666 409.34170810974393C165.09998545188907 405.1094579805859 189.39998619346625 382.611707294009 205.59998668785101 383.94820733479577C221.79998718223578 385.2847073755825 237.99998767662058 418.58583339185225 254.19998817100534 417.3607083544644C270.39998866539014 416.1355833170765 286.59998915977496 376.263332100272 302.79998965415973 376.59745711046867C318.9999901485445 376.9315821206654 335.19999064292927 419.0313334054478 351.3999911373141 419.3654584156445C367.59999163169886 419.6995834258412 383.79999212608357 379.38183219544106 399.99999262046833 378.6022071716488C416.19999311485316 377.8225821478565 432.399993609238 412.460208204913 448.59999410362275 414.6877082728909C464.7999945980075 416.9152083408688 480.99999509239234 390.5193325353306 497.1999955867771 391.96720757951624C513.3999960811619 393.4150826237019 529.5999965755467 422.3725835074147 545.7999970699315 423.37495853800476C561.9999975643162 424.3773335685948 578.199998058701 399.65208281404 594.3999985530859 397.9814577630566C610.5999990474706 396.31083271207314 634.8999997890478 410.7895831539296 643.0000000362402 413.35120823210417 " transform="rotate(117, 400, 400)"></path><path d="M170.49998517894747 408.8227237960502C178.14998541240695 404.82559867406763 201.0999861127854 383.57772302563393 216.39998657970435 384.8399730641547C231.6999870466233 386.10222310267557 246.99998751354224 417.5532865624858 262.2999879804612 416.3962240271751C277.59998844738016 415.2391614918643 292.8999889142992 377.58203534266005 308.1999893812181 377.89759785229023C323.4999898481371 378.2131603619205 338.79999031505605 417.9740365753261 354.099990781975 418.2895990849563C369.3999912488939 418.6051615945865 384.69999171581287 380.52728543254193 399.99999218273183 379.79097291007145C415.2999926496508 379.054660387601 430.5999931165698 411.76797388593207 445.89999358348877 413.87172395013346C461.1999940504077 415.9754740143348 476.4999945173267 391.0460357535487 491.79999498424564 392.41347329527963C507.0999954511646 393.7809108370105 522.3999959180835 421.1296616716281 537.6999963850026 422.07634920051873C552.9999968519215 423.02303672940934 568.2999973188405 399.6714110167743 583.5999977857595 398.09359846862327C598.8999982526784 396.51578592047224 621.8499989530569 410.1901613377811 629.4999991865163 412.6094739116126 " transform="rotate(110.5, 400, 400)"></path><path d="M183.99998515319825 408.3037509264483C191.19998537292483 404.5417508116411 212.79998603210453 384.5437502013506 227.19998647155768 385.73175023760547C241.59998691101083 386.91975027386036 255.99998735046395 416.5207511772112 270.3999877899171 415.4317511439776C284.79998822937023 414.3427511107439 299.1999886688234 378.9007500291399 313.59998910827653 379.1977500382036C327.9999895477297 379.4947500472673 342.39998998718283 416.9167511892962 356.799990426636 417.2137511983599C371.1999908660891 417.5107512074236 385.5999913055422 381.6727501137346 399.9999917449953 380.97975009258596C414.3999921844485 380.28675007143727 428.79999262390163 411.075751011043 443.1999930633548 413.0557510714678C457.59999350280793 415.0357511318926 471.999993942261 391.57275041585865 486.3999943817142 392.85975045513476C500.79999482116733 394.1467504944109 515.1999952606204 419.8867512799334 529.5999957000736 420.77775130712456C543.9999961395267 421.6687513343157 558.3999965789799 399.69075066360034 572.799997018433 398.20575061828174C587.1999974578862 396.72075057296314 608.7999981170659 409.5907509657244 615.9999983367925 411.8677510352129 " transform="rotate(104, 400, 400)"></path><path d="M197.49998512744907 407.78476089070864C204.2499853334427 404.257885783077 224.4999859514237 385.5097602109296 237.999986363411 386.6235102449185C251.49998677539833 387.73726027890746 264.9999871873856 415.4881986257989 278.49998759937296 414.46726109464237C291.9999880113603 413.4463235634858 305.4999884233476 380.219447549482 318.9999888353349 380.49788505797926C332.4999892473222 380.7763225664765 345.99998965930956 415.85944863712854 359.4999900712969 416.13788614562577C372.99999048328425 416.416323654123 386.4999908952715 382.8181976287896 399.9999913072588 382.1685101089627C413.49999171924617 381.5188225891358 426.99999213123345 410.3835109700162 440.4999925432208 412.23976102666444C453.99999295520814 414.0960110833127 467.4999933671954 392.0994479120309 480.9999937791827 393.30601044885225C494.49999419117006 394.5125729856736 507.99999460315735 418.64382372210093 521.4999950151447 419.47913624759263C534.999995427132 420.31444877308434 548.4999958391193 399.71007314428874 561.9999962511067 398.3178856018025C575.499996663094 396.92569805931635 595.7499972810749 408.99132342753 602.4999974870686 411.1260109926755 " transform="rotate(97.5, 400, 400)"></path><path d="M210.99998510169985 407.2657784843635C217.2999852939606 403.9740283839073 236.19998587074284 386.47577784990307 248.79998625526434 387.5152778816261C261.3999866397858 388.55477791334914 273.9999870243073 414.45565370378114 286.59998740882884 413.5027786747017C299.1999877933503 412.54990364562224 311.7999881778718 381.5381526992187 324.39998856239333 381.79802770714946C336.9999889469148 382.0579027150802 349.5999893314363 414.8021537143555 362.1999897159578 415.06202872228624C374.7999901004793 415.32190373021695 387.3999904850008 383.9636527732391 399.9999908695223 383.357277754734C412.59999125404374 382.7509027362289 425.1999916385653 409.69127855838394 437.7999920230868 411.4237786112556C450.39999240760824 413.15627866412734 462.9999927921298 392.62615303759765 475.59999317665125 393.7522780719642C488.1999935611728 394.87840310633084 500.79999394569427 417.400903793663 513.3999943302158 418.1805288174553C525.9999947147373 418.9601538412476 538.5999950992589 399.7294032543716 551.1999954837803 398.4300282147178C563.7999958683017 397.1306531750641 582.699996445084 408.39190351873015 588.9999966373448 410.38427857953263 " transform="rotate(91, 400, 400)"></path><path d="M224.49998507595063 406.74679607801846C230.34998525447847 403.6901709847377 247.89998579006198 387.4417954888766 259.59998614711765 388.4070455183337C271.2999865041734 389.37229554779077 282.999986861229 413.42310878176335 294.6999872182847 412.538296254761C306.39998757534033 411.65348372775867 318.09998793239606 382.85685784895537 329.7999882894517 383.09817035631966C341.4999886465074 383.33948286368394 353.1999890035631 413.7448587915824 364.89998936061875 413.98617129894666C376.5999897176744 414.22748380631094 388.2999900747301 385.1091079176886 399.99999043178576 384.5460454005053C411.69999078884143 383.982982883322 423.3999911458971 408.99904614675165 435.0999915029528 410.60779619584684C446.79999186000845 412.216546244942 458.4999922170641 393.1528581631644 470.19999257411985 394.19854569507623C481.8999929311755 395.2442332269881 493.5999932882312 416.1579838652251 505.29999364528686 416.8819213873179C516.9999940023425 417.60585890941076 528.6999943593983 399.74873336445455 540.3999947164539 398.5421708276332C552.0999950735095 397.3356082908118 569.6499956090931 407.7924836099303 575.499995787621 409.6425461663897 " transform="rotate(84.5, 400, 400)"></path><path d="M237.99998505020142 406.2278050886045C243.39998521499638 403.40630500249915 259.59998570938114 388.40780454478124 270.399986038971 389.2988045719724C281.1999863685609 390.18980459916355 291.9999866981507 412.3905552766767 302.79998702774054 411.5738052517515C313.5999873573304 410.75705522682625 324.39998768692027 384.1755544156232 335.19998801651013 384.398304422421C345.9999883461 384.6210544292188 356.79998867568986 412.6875552857404 367.59998900527967 412.9103052925382C378.3999893348696 413.13305529933604 389.1999896644594 386.25455447906927 399.99998999404926 385.73480446320775C410.7999903236391 385.21505444734623 421.59999065322893 408.3068051520506 432.39999098281885 409.7918051973692C443.19999131240866 411.2768052426878 453.9999916419985 393.67955470566227 464.7999919715884 394.6448047351194C475.59999230117825 395.6100547645765 486.3999926307681 414.91505535371834 497.1999929603579 415.5833053741117C507.99999328994784 416.2515553945051 518.7999936195376 399.7680548914686 529.5999939491276 398.65430485747964C540.3999942787174 397.54055482349065 556.5999947731021 407.1930551180616 561.9999949378971 408.900805170178 " transform="rotate(78, 400, 400)"></path><path d="M251.4999850244522 405.70882458960807C256.44998517551426 403.12244951067817 271.29998562870026 389.3738240911034 281.1999859308243 390.19057411602864C291.09998623294837 391.00732414095387 300.99998653507237 411.35801226200755 310.8999868371964 410.60932473915943C320.7999871393205 409.8606372163113 330.6999874414445 385.49426147270856 340.59998774356853 385.69844897893984C350.4999880456926 385.9026364851712 360.3999883478166 411.630262270316 370.29998864994064 411.8344497765473C380.1999889520647 412.0386372827786 390.0999892541887 387.4000115308674 399.9999895563127 386.9235740163277C409.89998985843675 386.44713650178795 419.7999901605608 407.6145746477669 429.6999904626848 408.975824689309C439.5999907648088 410.33707473085104 449.49999106693286 394.20626173857767 459.3999913690569 395.09107426558C469.299991671181 395.97588679258234 479.19999197330503 413.67213733262906 489.09999227542903 414.284699851323C498.9999925775531 414.8972623700169 508.8999928796771 399.7873869089001 518.7999931818011 398.7664493777436C528.6999934839253 397.745511846587 543.5499939371111 406.5936371166104 548.4999940881733 408.15907466438375 " transform="rotate(71.5, 400, 400)"></path><path d="M264.999984998703 405.18983932224C269.49998513603214 402.83858925048554 282.9999855480194 390.33983886905395 291.9999858226777 391.0823388917133C300.99998609733586 391.82483891437255 309.99998637199405 410.32546447896686 318.99998664665225 409.6448394581958C327.9999869213105 408.9642144374248 336.99998719596874 386.8129637614223 345.99998747062693 386.9985887670871C354.9999877452851 387.18421377275195 363.9999880199433 410.57296448651994 372.99998829460156 410.7585894921848C381.99998856925976 410.9442144978496 390.999988843918 388.54546381429395 399.9999891185762 388.112338801076C408.9999893932344 387.67921378785815 417.9999896678926 406.92233937511173 426.9999899425508 408.1598394128772C435.9999902172091 409.39733945064273 444.99999049186727 394.7329640031215 453.99999076652546 395.5373390276691C462.99999104118365 396.3417140522167 471.9999913158419 412.4292145431682 480.9999915905001 412.98608956016267C489.99999186515834 413.54296457715714 498.9999921398165 399.8067141579601 507.9999924144747 398.87858912963594C516.999992689133 397.9504641013118 530.4999931011203 405.9942143467876 534.9999932384494 407.41733939021793 " transform="rotate(65, 400, 400)"></path><path d="M278.5000002317429 404.67085977691784C282.5500003553391 402.55473471233887 294.70000072612766 391.30585936905044 302.80000097332004 391.9741093894438C310.9000012205124 392.6423594098372 319.0000014677048 409.292922417972 327.1000017148972 408.6803598992781C335.2000019620896 408.0677973805842 343.300002209282 388.1316717721819 351.4000024564744 388.29873427728023C359.5000027036668 388.46579678237856 367.60000295085916 409.51567242476983 375.7000031980516 409.68273492986816C383.800003445244 409.8497974349665 391.9000036924363 389.69092181976646 400.0000039396287 389.3011093078703C408.10000418682114 388.9112967959742 416.2000044340135 406.2301098245024 424.3000046812059 407.3438598584913C432.4000049283983 408.4576098924803 440.5000051755907 395.2596719897112 448.60000542278306 395.98360951180405C456.7000056699755 396.70754703389684 464.8000059171679 411.18629747575324 472.90000616436026 411.6874849910483C481.00000641155265 412.1886725063433 489.10000665874503 399.8260471290659 497.20000690593747 398.9907346035742C505.30000715312985 398.1554220780825 517.4500075239184 405.3947972990107 521.5000076475146 406.67560983809796 " transform="rotate(58.5, 400, 400)"></path><path d="M292.0000002059937 404.15187069485256C295.60000031585696 402.270870637449 306.40000064544677 392.2718703323037 313.60000086517334 392.8658703504311C320.8000010848999 393.4598703685586 328.0000013046265 408.260370820234 335.20000152435307 407.7158708036172C342.40000174407965 407.1713707870004 349.6000019638062 389.45037024619836 356.8000021835328 389.5988702507302C364.0000024032594 389.74737025526207 371.20000262298595 408.4583708262765 378.4000028427125 408.60687083080836C385.6000030624391 408.7553708353402 392.8000032821656 390.83637028849574 400.0000035018922 390.4898702779214C407.20000372161877 390.14337026734705 414.40000394134535 405.53787073714994 421.6000041610719 406.52787076736234C428.8000043807985 407.51787079757474 436.000004600525 395.78637043955774 443.2000048202516 396.4298704591958C450.40000503997817 397.07337047883385 457.60000525970474 409.9433708715951 464.8000054794313 410.38887088519067C472.0000056991579 410.8343708987863 479.2000059188845 399.8453705634286 486.40000613861105 399.1028705407693C493.6000063583376 398.36037051811 504.4000066879275 404.7953707144906 508.0000067977908 405.93387074923487 " transform="rotate(52, 400, 400)"></path><path d="M305.50000018024446 403.63288828850744C308.65000027637484 401.98701323827936 318.10000056476593 393.23788797127725 324.4000007570267 393.7576379871387C330.7000009492874 394.2773880030002 337.0000011415482 407.2278258982162 343.30000133380895 406.7513883836765C349.6000015260697 406.27495086913683 355.90000171833043 390.76907539593503 362.2000019105912 390.8990128999004C368.5000021028519 391.0289504038658 374.8000022951127 407.4010759035034 381.10000248737344 407.5310134074688C387.4000026796342 407.66095091143416 393.7000028718949 391.98182543294524 400.0000030641557 391.6786379236927C406.3000032564164 391.37545041444014 412.60000344867717 404.84563832551765 418.90000364093794 405.7118883519535C425.20000383319865 406.5781383783894 431.5000040254594 396.3130755651245 437.80000421772013 396.8761380823078C444.1000044099809 397.43920059949113 450.40000460224167 408.7004509431572 456.70000479450243 409.09026345505333C463.0000049867632 409.48007596694947 469.30000517902397 399.8647006735115 475.6000053712847 399.2150131536846C481.9000055635454 398.5653256338577 491.35000585193654 404.19595080569076 494.5000059480669 405.192138336092 " transform="rotate(45.5, 400, 400)"></path><path d="M319.00000015449524 403.1139034979766C321.7000002368927 401.7031534549239 329.8000004840851 394.20390322606494 335.20000064888006 394.6494032396605C340.60000081367497 395.0949032532561 346.00000097846987 406.1952785920127 351.40000114326483 405.7869035795501C356.80000130805973 405.3785285670874 362.20000147285464 392.0877781614859 367.6000016376496 392.1991531648848C373.00000180244456 392.3105281682837 378.40000196723946 406.34377859654455 383.80000213203436 406.45515359994346C389.2000022968293 406.5665286033423 394.60000246162423 393.12727819320895 400.00000262641913 392.8674031852782C405.4000027912141 392.60752817734743 410.800002956009 404.1534035296996 416.20000312080396 404.8959035523589C421.60000328559886 405.6384035750182 427.0000034503938 396.8397783065055 432.4000036151887 397.322403321234C437.8000037799836 397.80502833596256 443.2000039447786 407.4575286305335 448.6000041095735 407.7916536407302C454.00000427436845 408.12577865092686 459.40000443916335 399.8840283994086 464.8000046039583 399.3271533824141C470.2000047687532 398.77027836541964 478.3000050159456 403.5965285127051 481.0000050983431 404.45040353876334 " transform="rotate(39, 400, 400)"></path><path d="M332.500000128746 402.5949187074457C334.7500001974106 401.4192936715685 341.5000004034043 395.1699184808527 346.00000054073337 395.5411684921823C350.50000067806246 395.91241850351196 355.00000081539156 405.1627312858091 359.50000095272065 404.8224187754236C364.00000109004975 404.48210626503806 368.5000012273789 393.4064809270368 373.000001364708 393.4992934298692C377.5000015020371 393.59210593270166 382.0000016393662 405.28648128958565 386.5000017766953 405.3792937924181C391.00000191402444 405.47210629525046 395.50000205135353 394.27273095347266 400.00000218868263 394.0561684468637C404.5000023260117 393.8396059402547 409.0000024633408 403.46116873388155 413.50000260067 404.0799187527643C418.00000273799907 404.698668771647 422.50000287532816 397.36648104788645 427.00000301265726 397.7686685601602C431.50000314998636 398.170856072434 436.0000032873155 406.2146063179098 440.50000342464455 406.493043826407C445.0000035619737 406.77148133490425 449.5000036993028 399.9033561253057 454.0000038366319 399.4392936111436C458.50000397396104 398.9752310969816 465.25000417995466 402.99710621971946 467.50000424861923 403.7086687414346 " transform="rotate(32.5, 400, 400)"></path><path d="M345.9999962882996 402.07593630110057C347.7999963432312 401.1354362723988 353.1999965080261 396.13593611982617 356.7999966178894 396.4329361288899C360.3999967277527 396.7299361379536 363.999996837616 404.1301863637913 367.59999694747927 403.85793635548293C371.19999705734256 403.5856863471745 374.79999716720585 394.7251860767735 378.39999727706913 394.7994360790394C381.9999973869324 394.8736860813054 385.5999974967957 404.22918636681254 389.199997606659 404.3034363690785C392.7999977165223 404.37768637134445 396.3999978263855 395.41818609792216 399.99999793624886 395.244936092635C403.5999980461121 395.0716860873478 407.19999815597544 402.76893632224926 410.79999826583867 403.26393633735546C414.399998375702 403.75893635246166 417.99999848556524 397.89318617345316 421.59999859542853 398.21493618327224C425.1999987052918 398.53668619309127 428.7999988151551 404.97168638947187 432.3999989250184 405.1944363962697C435.9999990348817 405.41718640306743 439.59999914474497 399.9226862353886 443.19999925460826 399.551436224059C446.79999936447155 399.1801862127293 452.1999995292665 402.3976863109196 453.9999995841981 402.96693632829175 " transform="rotate(26, 400, 400)"></path><path d="M359.4999962625503 401.5569519874069C360.8499963037491 400.85157696588055 364.8999964273453 397.1019518514511 367.59999650974277 397.32470185824883C370.29999659214025 397.54745186504664 372.99999667453767 403.0976395344249 375.69999675693515 402.8934520281936C378.39999683933263 402.6892645219623 381.09999692173005 396.04388931916156 383.79999700412753 396.099576820861C386.499997086525 396.1552643225604 389.19999716892244 403.17188953669086 391.8999972513199 403.2275770383903C394.5999973337174 403.28326454008976 397.2999974161148 396.563639335023 399.9999974985123 396.4337018310577C402.6999975809098 396.3037643270923 405.3999976633072 402.0767020032684 408.09999774570474 402.447952014598C410.79999782810216 402.81920202592767 413.49999791049964 398.4198893916713 416.1999979928971 398.6612018990356C418.89999807529455 398.90251440639986 421.599998157692 403.7287645536853 424.2999982400895 403.89582705878365C426.99999832248693 404.062889563882 429.6999984048844 399.9420144381229 432.3999984872819 399.66357692962566C435.0999985696793 399.38513942112843 439.1499986932755 401.79826449477116 440.4999987344743 402.22520200780025 " transform="rotate(19.5, 400, 400)"></path><path d="M373.00000005149843 401.0379676737131C373.90000007896424 400.56771765936224 376.6000001613617 398.0679675830759 378.40000021629334 398.2164675876078C380.200000271225 398.36496759213964 382.0000003261566 402.06509270505853 383.80000038108824 401.9289677009043C385.6000004360199 401.7928426967501 387.4000004909516 397.3625925615496 389.2000005458832 397.39971756268255C391.0000006008148 397.4368425638155 392.8000006557465 402.1145927065691 394.60000071067816 402.1517177077021C396.4000007656098 402.18884270883507 398.2000008205414 397.70909257212395 400.00000087547306 397.62246756948036C401.8000009304047 397.5358425668368 403.60000098533635 401.3844676842875 405.40000104026797 401.6319676918406C407.20000109519964 401.8794676993937 409.00000115013125 398.9465926098894 410.8000012050629 399.10746761479896C412.60000125999454 399.26834261970845 414.40000131492616 402.4858427178988 416.20000136985783 402.5972177212977C418.0000014247895 402.7085927246966 419.8000014797211 399.96134264085714 421.60000153465273 399.77571763519234C423.4000015895844 399.5900926295275 426.1000016719819 401.19884267862267 427.0000016994477 401.4834676873087 " transform="rotate(13, 400, 400)"></path><path d="M386.5000000257492 400.51898431369375C386.9500000394821 400.28385930651825 388.30000008068083 399.0339842683751 389.2000001081467 399.10823427064105C390.1000001356125 399.182484272907 391.0000001630783 401.0325468293664 391.9000001905441 400.9644843272893C392.8000002180099 400.8964218252122 393.7000002454758 398.68129675761196 394.6000002729416 398.69985925817844C395.5000003004074 398.7184217587449 396.4000003278733 401.05729683012174 397.3000003553391 401.0758593306882C398.2000003828049 401.0944218312547 399.1000004102707 398.85454676289913 400.0000004377365 398.81123426157734C400.9000004652023 398.76792176025555 401.8000004926682 400.6922343189809 402.700000520134 400.81598432275746C403.60000054759985 400.939734326534 404.50000057506566 399.47329678178187 405.40000060253146 399.5537342842366C406.30000062999727 399.6341717866914 407.2000006574631 401.24292183578655 408.1000006849289 401.29860933748597C409.00000071239475 401.35429683918545 409.90000073986056 399.98067179726576 410.80000076732637 399.8878592944333C411.70000079479223 399.7950467916009 413.05000083599094 400.5994218161485 413.50000084972385 400.7417343204915 " transform="rotate(6.5, 400, 400)"></path></g></svg>